<svg width="20" height="20" viewBox="0 0 20 20" fill="none" xmlns="http://www.w3.org/2000/svg">
<path d="M8.60219 11.3978L18.4295 1.5705M8.7216 11.7049L11.1813 18.0299C11.398 18.5871 11.5064 18.8657 11.6625 18.947C11.7978 19.0176 11.959 19.0177 12.0945 18.9473C12.2507 18.8661 12.3593 18.5877 12.5767 18.0307L18.7448 2.2249C18.941 1.72213 19.0391 1.47075 18.9855 1.31012C18.9389 1.17062 18.8294 1.06114 18.6899 1.01454C18.5292 0.96088 18.2779 1.05898 17.7751 1.25518L1.96928 7.42331C1.41233 7.64065 1.13385 7.74933 1.0527 7.90554C0.982345 8.04096 0.98244 8.20217 1.05295 8.33751C1.13429 8.49362 1.41289 8.60197 1.9701 8.81866L8.29514 11.2784C8.40825 11.3224 8.4648 11.3444 8.51242 11.3783C8.55463 11.4085 8.59154 11.4454 8.62165 11.4876C8.65562 11.5352 8.67761 11.5917 8.7216 11.7049Z" stroke="#B8BDC7" stroke-width="2" stroke-linecap="round" stroke-linejoin="round"/>
</svg>
